<svg width="13" height="14" viewBox="0 0 13 14" fill="none" xmlns="http://www.w3.org/2000/svg">
<path fill-rule="evenodd" clip-rule="evenodd" d="M2.16665 3.20825H3.24998V2.53117C3.24998 2.23201 3.49249 1.9895 3.79165 1.9895C4.0908 1.9895 4.33331 2.23201 4.33331 2.53117V3.20825H8.66665V2.53117C8.66665 2.23201 8.90915 1.9895 9.20831 1.9895C9.50748 1.9895 9.74998 2.23201 9.74998 2.53117V3.20825H10.8333C11.4316 3.20825 11.9166 3.69328 11.9166 4.29159V10.7916C11.9166 11.3899 11.4316 11.8749 10.8333 11.8749H2.16665C1.56834 11.8749 1.08331 11.3899 1.08331 10.7916V4.29159C1.08331 3.69328 1.56834 3.20825 2.16665 3.20825ZM2.16665 10.7916V6.45826H10.8333V10.7916H2.16665ZM10.8333 4.29159V5.37492H2.16665V4.29159H10.8333Z" fill="black"/>
</svg>
